<?xml version="1.0" encoding="UTF-8"?>
<svg xmlns="http://www.w3.org/2000/svg" width="1366" height="768" version="1.1" desc="Created with imagetracer.js version 1.2.6" style="background: transparent;"><path fill="rgb(255,242,130)" stroke="rgb(255,242,130)" stroke-width="1" opacity="1" d="M 665.5 322 L 668 323 L 668 328 L 670 328 Q 669 324.2 671.5 323 L 674 323.5 L 672 324.5 L 679.5 334 Q 681 330.5 682.5 333 L 691 336 L 691 332 L 692.5 332 L 696.5 333 L 698.5 332 Q 700.8 335.8 707.5 335 L 709 332 L 717.5 333 L 724.5 330 L 731 331 L 731.5 335 Q 732.3 332.3 736.5 333 L 738 333.5 Q 737.4 327.3 740 325 L 742.5 324 L 743 326 Q 745.7 324.9 745 327.5 L 746.5 327 L 756 328 L 756.5 331 L 758.5 330 L 761.5 332 L 762.5 329 L 771.5 332 L 788.5 333 L 795.5 336 L 798.5 335 L 800.5 336 L 807.5 332 L 809.5 337 L 814.5 333 L 815 336 L 820.5 337 L 822.5 334 L 831 331 Q 829.8 334 833.5 333 Q 835 330.5 836.5 334 L 838 332.5 Q 836.5 328.1 839.5 329 L 839 327.5 L 839.5 325 L 842 329 Q 838.7 327.9 840 332 Q 842.7 330.1 849.5 331 Q 851.3 333.7 857.5 332 Q 860.2 329.2 866.5 330 L 868 333 L 881 335 L 882.5 331 L 891 330 L 892.5 327 L 906.5 327 L 909.5 330 L 919 331 Q 917.9 334.5 925.5 333 L 928.5 331 L 931 332.5 L 929 333.5 L 932.5 335 L 932.5 333 L 935.5 335 L 950.5 335 Q 954.5 332 962.5 333 Q 963.6 335.8 967 335 L 969.5 341 L 971 340.5 L 971.5 342 L 980 338.5 L 979 335 L 983.5 335 L 988.5 339 L 989.5 338 L 996 338 L 996.5 336 L 998.5 339 L 989 343.5 L 991 346.5 L 987.5 348 Q 985 346.8 986 343 Q 978.2 341.8 975 346.5 L 973 351 L 976 351.5 Q 975.3 354.8 970.5 354 L 951 350.5 L 955.5 348 L 961 350 L 962 342.5 Q 961 339 955.5 340 L 949.5 345 L 945 345 L 943.5 342 L 934 346 L 930 353.5 L 930.5 355 Q 928.3 355.8 929 353.5 L 927.5 352 L 912.5 349 L 911 347.5 Q 911.8 345.3 909.5 346 Q 903.9 348.7 904 356 L 897.5 354 L 897.5 356 L 893 358 L 892.5 355 L 890 356.5 L 893 346.5 L 884.5 339 L 883 342.5 L 883 357.5 L 884 362 Q 881.3 363.1 882 360.5 L 877.5 357 L 871.5 360 L 872.5 357 Q 868.3 356.3 867.5 359 L 867 357.5 L 869 350 Q 860.8 349.6 858 355.5 L 856 359.5 L 858.5 360 L 865.5 357 L 863.5 360 L 859 362.5 Q 859.9 365.5 855.5 364 L 851 362.5 L 854 360.5 L 850 357.5 L 864 338.5 L 858.5 337 Q 849.7 344.1 847 356 L 844 354.5 Q 843.4 349.1 845 347 Q 840.3 346.3 839 350.5 L 834.5 356 L 827 357 L 825.5 351 L 821 354.5 L 820.5 349 L 817.5 355 L 811 349.5 L 813 355.5 Q 812.3 357.8 808.5 357 Q 805.3 355.3 809 353.5 L 810 345.5 L 808.5 340 L 798.5 354 L 799 352.5 L 798.5 350 Q 793.8 355.3 781.5 353 L 779.5 351 L 773.5 350 L 769.5 355 L 768 354.5 L 771 352.5 L 770.5 350 L 763 352 L 761.5 355 L 759 353.5 L 758.5 352 L 752 355 L 751 352.5 L 759.5 350 L 761 350.5 L 761 343.5 L 759.5 343 L 753.5 346 L 743.5 355 L 741.5 355 Q 739.5 352.2 735 353 L 734.5 350 Q 733.3 352.3 732 349.5 Q 731.4 344.4 734.5 343 L 735 345 Q 737.7 346.1 737 343.5 L 738 340.5 Q 734.9 338.8 736.5 337 L 731 338 L 733 342.5 Q 727.6 344.1 727.5 351 L 724.5 349 Q 720.8 353.9 714 355 L 715 352.5 L 712.5 352 L 710.5 352 L 703.5 349 L 700 351.5 Q 701.1 354.8 698.5 354 L 696 355.5 L 697 353 L 690.5 355 L 682.5 355 L 681 356.5 L 683 359.5 L 681 360.5 L 679 355 L 676.5 354 L 672.5 359 L 672 355 Q 667.8 356 666.5 353 L 662.5 354 L 659 352 L 659 355 Q 661.7 353.9 661 356.5 L 664 362 Q 659.3 361.6 657 357.5 L 659 357 Q 660.3 353.7 655.5 355 L 652.5 357 L 650 353.5 L 655 350.5 L 652.5 350 L 649.5 351 Q 646.9 350.3 648 353 L 645.5 353 L 641.5 354 L 638.5 353 L 636.5 354 Q 635.8 351.3 631.5 352 L 628 357 Q 624.3 358.5 625 355.5 L 621.5 358 L 613.5 359 L 610 361.5 L 609.5 363 Q 606.5 361.5 609.5 360 L 613 357.5 Q 613.8 355.3 611.5 356 L 611.5 355 L 614 354.5 L 610.5 353 L 603.5 357 L 602 352 L 597 353 L 598 359 L 595 357.5 L 593.5 355 L 586.5 357 L 579.5 355 Q 578.3 357.3 573.5 356 L 568.5 359 L 564 359 L 561.5 355 L 557.5 357 L 558 355.5 Q 559.5 351.1 556.5 352 L 555 352.5 L 554.5 351 L 549 354.5 L 548.5 356 L 542 356 L 543.5 353 L 545.5 353 Q 548.1 353.7 547 351 Q 544 352 545 349 L 542.5 349 Q 539.3 350.2 540 354 L 534.5 353 L 531.5 355 L 531 353.5 L 531.5 352 L 529 351.5 L 531 348.5 L 528.5 348 L 527 352 L 523.5 353 L 521.5 350 Q 520.3 353.8 516 353 L 517 357 L 508.5 354 L 509.5 357 L 504 353.5 L 501.5 350 Q 496.1 348.1 497 351.5 L 499 356.5 L 497.5 356 L 492 355 L 493 352.5 L 491.5 352 L 490 352.5 L 489.5 351 L 486.5 353 L 481.5 352 L 475.5 354 L 475 352 Q 477.4 350.3 483.5 351 L 485 349.5 Q 485.9 346.5 481.5 348 L 483 345.5 Q 483.9 342.5 479.5 344 L 474 347.5 L 477 348 L 475.5 351 L 472.5 353 L 468.5 352 L 466.5 353 L 458 346.5 L 456.5 344 Q 451.4 343.4 450 346.5 Q 448.6 351.1 454.5 349 L 456 352.5 L 452.5 350 L 443.5 353 L 440 352 L 441 349.5 L 439 346.5 L 439.5 345 L 436 346 Q 437.1 348.7 434.5 348 Q 432.7 345.2 431 349.5 L 428.5 353 L 425.5 354 L 423 349 Q 419.6 348.3 418.5 351 L 411.5 351 L 405 350 L 403.5 353 L 395.5 355 L 379.5 355 L 376 356 Q 377.1 359.5 369.5 358 L 370 356.5 L 369 353 L 365.5 354 L 364 353.5 L 362.5 357 L 360.5 354 L 348.5 353 L 348.5 355 L 345 354 Q 346.3 357.3 341.5 356 L 329.5 353 L 316.5 353 L 315 353.5 L 314.5 352 L 310.5 355 L 303.5 351 L 300.5 351 L 299 351.5 L 294 341.5 Q 295.3 336.7 293 335.5 Q 299.2 335.7 301.5 332 L 308.5 336 Q 308.3 331.3 311.5 330 L 318.5 333 L 340.5 333 L 341.5 332 L 362.5 332 L 366 333 L 366.5 331 L 368 331.5 L 369 328 L 375.5 333 L 377.5 328 L 388.5 329 L 389.5 330 L 399.5 330 L 401.5 329 L 403.5 333 L 405.5 330 Q 410.5 331 411.5 328 L 421 333.5 L 421.5 337 Q 424.8 335.8 424 332 Q 430.7 333.4 433.5 330 L 452.5 330 L 456.5 332 L 461 329.5 L 459 326.5 L 466 326 L 467.5 329 Q 473 330 474 326.5 Q 473.3 324.3 475.5 325 L 474 327.5 Q 472.9 330.8 475.5 330 L 480.5 326 L 479 328.5 L 479 330 L 484 330 L 483 326 L 512.5 328 L 513.5 329 L 523.5 329 L 525.5 331 Q 531.3 330.2 533 333.5 L 531 336.5 L 535 338 L 537 333.5 Q 533.2 331.8 536.5 330 L 540 327.5 L 542.5 324 L 548.5 324 L 559.5 327 L 561.5 326 L 565.5 327 L 568.5 326 L 579.5 329 L 581.5 331 Q 584.3 327.3 590.5 327 L 595 328 L 595.5 330 L 603.5 326 L 607.5 328 L 611.5 327 L 613 330 L 625.5 328 L 628 329 Q 626.9 331.7 629.5 331 L 638.5 327 L 640.5 327 L 642.5 326 L 648.5 329 L 653 329 Q 651.2 324.1 657.5 326 L 665.5 322 Z M 345 351 Q 343 354 346 353 L 345 351 Z "/><path fill="rgb(255,242,130)" stroke="rgb(255,242,130)" stroke-width="1" opacity="1" d="M 289.5 331 L 290 333.5 L 289 333.5 L 289.5 331 Z "/><path fill="rgb(255,242,130)" stroke="rgb(255,242,130)" stroke-width="1" opacity="1" d="M 1031.5 332 Q 1033.8 331.3 1033 333.5 L 1034 335.5 L 1032.5 335 L 1029 333.5 L 1031.5 332 Z "/><path fill="rgb(255,242,130)" stroke="rgb(255,242,130)" stroke-width="1" opacity="1" d="M 971.5 334 Q 973.8 333.3 973 335.5 L 970 337 L 971.5 334 Z "/><path fill="rgb(255,242,130)" stroke="rgb(255,242,130)" stroke-width="1" opacity="1" d="M 1008.5 337 L 1007.5 339 L 1008.5 337 Z "/><path fill="rgb(255,242,130)" stroke="rgb(255,242,130)" stroke-width="1" opacity="1" d="M 1011.5 337 L 1015 339.5 L 1010 340 L 1011.5 337 Z "/><path fill="rgb(255,242,130)" stroke="rgb(255,242,130)" stroke-width="1" opacity="1" d="M 1068.5 337 L 1071 338 Q 1072.3 341 1068.5 340 Q 1065.5 338.5 1068.5 337 Z "/><path fill="rgb(255,242,130)" stroke="rgb(255,242,130)" stroke-width="1" opacity="1" d="M 1019 339 Q 1023.6 337.8 1025 340.5 L 1023 341 L 1024 344.5 Q 1022.8 347.8 1019 347 Q 1018.2 342.7 1022 341.5 L 1019 341 L 1019 339 Z "/><path fill="rgb(255,242,130)" stroke="rgb(255,242,130)" stroke-width="1" opacity="1" d="M 1030.5 339 L 1034 341.5 L 1031.5 342 L 1027 340.5 L 1030.5 339 Z "/><path fill="rgb(255,242,130)" stroke="rgb(255,242,130)" stroke-width="1" opacity="1" d="M 1043.5 339 L 1044.5 341 Q 1041.7 341.7 1043.5 339 Z "/><path fill="rgb(255,242,130)" stroke="rgb(255,242,130)" stroke-width="1" opacity="1" d="M 1009.5 341 Q 1013.3 344.3 1012 352.5 L 1009.5 354 L 1005.5 353 L 1001.5 355 Q 998.9 355.8 1000 352.5 L 1005.5 347 L 1007.5 349 L 1011 347.5 L 1007 342 L 1009.5 341 Z "/><path fill="rgb(255,242,130)" stroke="rgb(255,242,130)" stroke-width="1" opacity="1" d="M 1068.5 342 L 1067.5 344 L 1068.5 342 Z "/><path fill="rgb(255,242,130)" stroke="rgb(255,242,130)" stroke-width="1" opacity="1" d="M 1073 343 L 1076 344.5 L 1073.5 346 L 1073 343 Z "/><path fill="rgb(255,242,130)" stroke="rgb(255,242,130)" stroke-width="1" opacity="1" d="M 993 344 L 997 344 L 997 345.5 L 994.5 347 L 993 344 Z "/><path fill="rgb(255,242,130)" stroke="rgb(255,242,130)" stroke-width="1" opacity="1" d="M 1125.5 345 L 1126 347.5 L 1125 347.5 L 1125.5 345 Z "/><path fill="rgb(255,242,130)" stroke="rgb(255,242,130)" stroke-width="1" opacity="1" d="M 940.5 347 Q 943.1 346.3 942 349 L 939.5 350 L 938.5 348 L 940.5 347 Z "/><path fill="rgb(255,242,130)" stroke="rgb(255,242,130)" stroke-width="1" opacity="1" d="M 1054 347 Q 1057.3 345.9 1056 350 Q 1052.7 351.1 1054 347 Z "/><path fill="rgb(255,242,130)" stroke="rgb(255,242,130)" stroke-width="1" opacity="1" d="M 1034.5 348 L 1035 349.5 L 1032.5 351 L 1031.5 349 L 1034.5 348 Z "/><path fill="rgb(255,242,130)" stroke="rgb(255,242,130)" stroke-width="1" opacity="1" d="M 804.5 349 L 806 355.5 L 803.5 356 Q 801.3 356.8 802 354.5 L 804.5 349 Z "/><path fill="rgb(255,242,130)" stroke="rgb(255,242,130)" stroke-width="1" opacity="1" d="M 978.5 349 L 981 350.5 L 979.5 350 L 978.5 349 Z "/><path fill="rgb(255,242,130)" stroke="rgb(255,242,130)" stroke-width="1" opacity="1" d="M 1047.5 349 L 1053 353 L 1052.5 355 L 1048 352.5 L 1047.5 349 Z "/><path fill="rgb(255,242,130)" stroke="rgb(255,242,130)" stroke-width="1" opacity="1" d="M 1092.5 350 Q 1097.9 348.1 1097 351.5 Q 1095.8 354.3 1094.5 352 L 1087.5 353 L 1086.5 351 Q 1091.3 352.3 1092.5 350 Z "/><path fill="rgb(255,242,130)" stroke="rgb(255,242,130)" stroke-width="1" opacity="1" d="M 993.5 351 L 994 353 L 992 352.5 L 993.5 351 Z "/><path fill="rgb(255,242,130)" stroke="rgb(255,242,130)" stroke-width="1" opacity="1" d="M 936.5 352 L 939 353 Q 940.1 355.7 937.5 355 L 931.5 358 L 931 356 L 934 355.5 L 933 353 L 936.5 352 Z "/><path fill="rgb(255,242,130)" stroke="rgb(255,242,130)" stroke-width="1" opacity="1" d="M 1015 353 Q 1018 352 1017 355 Q 1014 356 1015 353 Z "/><path fill="rgb(255,242,130)" stroke="rgb(255,242,130)" stroke-width="1" opacity="1" d="M 1084.5 354 L 1087 355.5 L 1084 356 L 1084.5 354 Z "/><path fill="rgb(255,242,130)" stroke="rgb(255,242,130)" stroke-width="1" opacity="1" d="M 840.5 357 L 843 358.5 L 841 362 Q 836.1 363.6 838 358 L 840.5 357 Z "/><path fill="rgb(255,242,130)" stroke="rgb(255,242,130)" stroke-width="1" opacity="1" d="M 941.5 357 L 943 357.5 L 939.5 359 L 939.5 358 L 941.5 357 Z "/><path fill="rgb(255,242,130)" stroke="rgb(255,242,130)" stroke-width="1" opacity="1" d="M 577.5 358 L 578 360 L 576 359.5 L 577.5 358 Z "/><path fill="rgb(255,255,254)" stroke="rgb(255,255,254)" stroke-width="1" opacity="1" d="M 670 322 L 673 322.5 L 670.5 324 L 670 322 Z "/><path fill="rgb(255,255,254)" stroke="rgb(255,255,254)" stroke-width="1" opacity="1" d="M 543.5 323 L 546 323.5 L 543.5 324 L 543.5 323 Z "/><path fill="rgb(255,255,254)" stroke="rgb(255,255,254)" stroke-width="1" opacity="1" d="M 661.5 323 L 660.5 325 L 661.5 323 Z "/><path fill="rgb(255,255,254)" stroke="rgb(255,255,254)" stroke-width="1" opacity="1" d="M 743 323 L 745 323.5 L 744.5 325 Q 747.1 324.2 746 327.5 L 745 327.5 L 743 323 Z "/><path fill="rgb(255,255,254)" stroke="rgb(255,255,254)" stroke-width="1" opacity="1" d="M 475.5 324 Q 477.8 323.3 477 325.5 L 474.5 328 L 473.5 327 L 471 328.5 L 476 325.5 L 475.5 324 Z "/><path fill="rgb(255,255,254)" stroke="rgb(255,255,254)" stroke-width="1" opacity="1" d="M 541.5 324 L 540.5 326 L 541.5 324 Z "/><path fill="rgb(255,255,254)" stroke="rgb(255,255,254)" stroke-width="1" opacity="1" d="M 672.5 324 L 673.5 326 L 672.5 324 Z "/><path fill="rgb(255,255,254)" stroke="rgb(255,255,254)" stroke-width="1" opacity="1" d="M 458.5 326 L 459.5 328 L 458.5 326 Z "/><path fill="rgb(255,255,254)" stroke="rgb(255,255,254)" stroke-width="1" opacity="1" d="M 466.5 326 L 468 328.5 L 465 328.5 L 466.5 326 Z "/><path fill="rgb(255,255,254)" stroke="rgb(255,255,254)" stroke-width="1" opacity="1" d="M 478.5 326 L 475.5 330 L 474 329.5 L 478.5 326 Z "/><path fill="rgb(255,255,254)" stroke="rgb(255,255,254)" stroke-width="1" opacity="1" d="M 481.5 326 L 480 328.5 L 479.5 330 L 479 328.5 L 481.5 326 Z "/><path fill="rgb(255,255,254)" stroke="rgb(255,255,254)" stroke-width="1" opacity="1" d="M 493.5 326 L 497 326.5 L 493.5 327 L 493.5 326 Z "/><path fill="rgb(255,255,254)" stroke="rgb(255,255,254)" stroke-width="1" opacity="1" d="M 557.5 326 L 560 326.5 L 557.5 327 L 557.5 326 Z "/><path fill="rgb(255,255,254)" stroke="rgb(255,255,254)" stroke-width="1" opacity="1" d="M 562.5 326 L 566 326.5 L 562.5 327 L 562.5 326 Z "/><path fill="rgb(255,255,254)" stroke="rgb(255,255,254)" stroke-width="1" opacity="1" d="M 604.5 326 L 608 327.5 L 605.5 328 L 604.5 326 Z "/><path fill="rgb(255,255,254)" stroke="rgb(255,255,254)" stroke-width="1" opacity="1" d="M 898.5 326 L 904 326.5 L 898.5 327 L 898.5 326 Z "/><path fill="rgb(255,255,254)" stroke="rgb(255,255,254)" stroke-width="1" opacity="1" d="M 370.5 327 L 375.5 333 L 370.5 327 Z "/><path fill="rgb(255,255,254)" stroke="rgb(255,255,254)" stroke-width="1" opacity="1" d="M 411.5 327 L 409.5 330 L 408 329.5 L 411.5 327 Z "/><path fill="rgb(255,255,254)" stroke="rgb(255,255,254)" stroke-width="1" opacity="1" d="M 503.5 327 L 507 327.5 L 503.5 328 L 503.5 327 Z "/><path fill="rgb(255,255,254)" stroke="rgb(255,255,254)" stroke-width="1" opacity="1" d="M 751.5 327 L 757 327.5 L 751.5 328 L 751.5 327 Z "/><path fill="rgb(255,255,254)" stroke="rgb(255,255,254)" stroke-width="1" opacity="1" d="M 907.5 327 Q 908.8 329.8 913 329.5 L 909.5 330 L 907.5 327 Z "/><path fill="rgb(255,255,254)" stroke="rgb(255,255,254)" stroke-width="1" opacity="1" d="M 293.5 328 L 296 329.5 L 294.5 329 L 293.5 328 Z "/><path fill="rgb(255,255,254)" stroke="rgb(255,255,254)" stroke-width="1" opacity="1" d="M 380.5 328 L 385 328.5 L 380.5 329 L 380.5 328 Z "/><path fill="rgb(255,255,254)" stroke="rgb(255,255,254)" stroke-width="1" opacity="1" d="M 513.5 328 L 523.5 328 L 526 330.5 L 523.5 329 L 513.5 329 L 513.5 328 Z "/><path fill="rgb(255,255,254)" stroke="rgb(255,255,254)" stroke-width="1" opacity="1" d="M 675.5 328 L 676.5 330 L 675.5 328 Z "/><path fill="rgb(255,255,254)" stroke="rgb(255,255,254)" stroke-width="1" opacity="1" d="M 842.5 328 L 843 330 L 845 330.5 L 843.5 331 L 842.5 328 Z "/><path fill="rgb(255,255,254)" stroke="rgb(255,255,254)" stroke-width="1" opacity="1" d="M 309.5 329 Q 311.8 328.3 311 330.5 L 308 332.5 Q 311.1 330.8 309.5 329 Z "/><path fill="rgb(255,255,254)" stroke="rgb(255,255,254)" stroke-width="1" opacity="1" d="M 389.5 329 L 392 329.5 L 389.5 330 L 389.5 329 Z "/><path fill="rgb(255,255,254)" stroke="rgb(255,255,254)" stroke-width="1" opacity="1" d="M 289.5 330 L 291 333.5 L 290 333.5 L 289.5 330 Z "/><path fill="rgb(255,255,254)" stroke="rgb(255,255,254)" stroke-width="1" opacity="1" d="M 365.5 330 L 366 332.5 L 365 332.5 L 365.5 330 Z "/><path fill="rgb(255,255,254)" stroke="rgb(255,255,254)" stroke-width="1" opacity="1" d="M 404.5 330 L 404 331.5 L 403.5 333 L 403 331.5 L 404.5 330 Z "/><path fill="rgb(255,255,254)" stroke="rgb(255,255,254)" stroke-width="1" opacity="1" d="M 535.5 330 L 536.5 334 Q 532 332 535.5 330 Z "/><path fill="rgb(255,255,254)" stroke="rgb(255,255,254)" stroke-width="1" opacity="1" d="M 725.5 330 L 729 330.5 L 725.5 331 L 725.5 330 Z "/><path fill="rgb(255,255,254)" stroke="rgb(255,255,254)" stroke-width="1" opacity="1" d="M 867.5 330 L 869.5 333 Q 867.3 333.8 868 331.5 L 867.5 330 Z "/><path fill="rgb(255,255,254)" stroke="rgb(255,255,254)" stroke-width="1" opacity="1" d="M 348.5 331 L 359 331.5 L 348.5 332 L 348.5 331 Z "/><path fill="rgb(255,255,254)" stroke="rgb(255,255,254)" stroke-width="1" opacity="1" d="M 419.5 331 L 420.5 333 L 419.5 331 Z "/><path fill="rgb(255,255,254)" stroke="rgb(255,255,254)" stroke-width="1" opacity="1" d="M 677.5 331 L 678.5 333 L 677.5 331 Z "/><path fill="rgb(255,255,254)" stroke="rgb(255,255,254)" stroke-width="1" opacity="1" d="M 731.5 331 L 736 332.5 L 731.5 335 L 732.5 332 L 731.5 331 Z "/><path fill="rgb(255,255,254)" stroke="rgb(255,255,254)" stroke-width="1" opacity="1" d="M 880 331 L 882 331.5 L 880.5 335 L 880 331 Z "/><path fill="rgb(255,255,254)" stroke="rgb(255,255,254)" stroke-width="1" opacity="1" d="M 1033.5 331 L 1034 333.5 L 1033 333.5 L 1033.5 331 Z "/><path fill="rgb(255,255,254)" stroke="rgb(255,255,254)" stroke-width="1" opacity="1" d="M 300.5 332 L 299.5 334 L 300.5 332 Z "/><path fill="rgb(255,255,254)" stroke="rgb(255,255,254)" stroke-width="1" opacity="1" d="M 318.5 332 L 321 332.5 L 318.5 333 L 318.5 332 Z "/><path fill="rgb(255,255,254)" stroke="rgb(255,255,254)" stroke-width="1" opacity="1" d="M 337.5 332 L 341 332.5 L 337.5 333 L 337.5 332 Z "/><path fill="rgb(255,255,254)" stroke="rgb(255,255,254)" stroke-width="1" opacity="1" d="M 423.5 332 L 424 334.5 L 423 334.5 L 423.5 332 Z "/><path fill="rgb(255,255,254)" stroke="rgb(255,255,254)" stroke-width="1" opacity="1" d="M 782.5 332 L 786 332.5 L 782.5 333 L 782.5 332 Z "/><path fill="rgb(255,255,254)" stroke="rgb(255,255,254)" stroke-width="1" opacity="1" d="M 814.5 332 L 810.5 337 L 808 335.5 L 809.5 336 L 814.5 332 Z "/><path fill="rgb(255,255,254)" stroke="rgb(255,255,254)" stroke-width="1" opacity="1" d="M 831.5 332 L 834 332.5 L 831.5 333 L 831.5 332 Z "/><path fill="rgb(255,255,254)" stroke="rgb(255,255,254)" stroke-width="1" opacity="1" d="M 931.5 332 L 933 334.5 L 931 335 L 931.5 332 Z "/><path fill="rgb(255,255,254)" stroke="rgb(255,255,254)" stroke-width="1" opacity="1" d="M 957.5 332 L 961 332.5 L 957.5 333 L 957.5 332 Z "/><path fill="rgb(255,255,254)" stroke="rgb(255,255,254)" stroke-width="1" opacity="1" d="M 685.5 333 L 686.5 335 L 685.5 333 Z "/><path fill="rgb(255,255,254)" stroke="rgb(255,255,254)" stroke-width="1" opacity="1" d="M 789.5 333 L 792 334.5 L 790.5 334 L 789.5 333 Z "/><path fill="rgb(255,255,254)" stroke="rgb(255,255,254)" stroke-width="1" opacity="1" d="M 934.5 333 L 935.5 335 L 934.5 333 Z "/><path fill="rgb(255,255,254)" stroke="rgb(255,255,254)" stroke-width="1" opacity="1" d="M 963.5 333 L 967.5 334 L 970 336.5 L 968.5 336 Q 963.5 335.9 963.5 333 Z "/><path fill="rgb(255,255,254)" stroke="rgb(255,255,254)" stroke-width="1" opacity="1" d="M 972.5 333 L 973.5 335 L 972.5 333 Z "/><path fill="rgb(255,255,254)" stroke="rgb(255,255,254)" stroke-width="1" opacity="1" d="M 981.5 333 L 982.5 335 Q 979.7 335.7 981.5 333 Z "/><path fill="rgb(255,255,254)" stroke="rgb(255,255,254)" stroke-width="1" opacity="1" d="M 294.5 334 L 298 334.5 L 294.5 335 L 294.5 334 Z "/><path fill="rgb(255,255,254)" stroke="rgb(255,255,254)" stroke-width="1" opacity="1" d="M 801.5 334 L 800.5 336 L 801.5 334 Z "/><path fill="rgb(255,255,254)" stroke="rgb(255,255,254)" stroke-width="1" opacity="1" d="M 944.5 334 L 948 334.5 L 944.5 335 L 944.5 334 Z "/><path fill="rgb(255,255,254)" stroke="rgb(255,255,254)" stroke-width="1" opacity="1" d="M 975.5 334 Q 977.8 333.3 977 335.5 L 975.5 334 Z "/><path fill="rgb(255,255,254)" stroke="rgb(255,255,254)" stroke-width="1" opacity="1" d="M 989.5 334 Q 992.5 333.2 991 337 L 995.5 337 L 995.5 338 Q 990 336.5 988.5 339 L 985 336.5 L 986.5 336 L 989 337.5 L 988 335.5 L 989.5 334 Z "/><path fill="rgb(255,255,254)" stroke="rgb(255,255,254)" stroke-width="1" opacity="1" d="M 1028.5 334 L 1031 334.5 L 1028.5 335 L 1028.5 334 Z "/><path fill="rgb(255,255,254)" stroke="rgb(255,255,254)" stroke-width="1" opacity="1" d="M 1041.5 334 L 1043 334.5 L 1040 336.5 L 1041.5 334 Z "/><path fill="rgb(255,255,254)" stroke="rgb(255,255,254)" stroke-width="1" opacity="1" d="M 292.5 335 Q 294.8 335.8 294 339.5 L 293 339.5 L 292.5 335 Z "/><path fill="rgb(255,255,254)" stroke="rgb(255,255,254)" stroke-width="1" opacity="1" d="M 1009.5 335 L 1011 337.5 L 1009 338.5 L 1011 341.5 L 1008 341.5 L 1009 339.5 L 1006 338.5 L 1009.5 335 Z "/><path fill="rgb(255,255,254)" stroke="rgb(255,255,254)" stroke-width="1" opacity="1" d="M 531.5 336 L 532.5 338 L 531.5 336 Z "/><path fill="rgb(255,255,254)" stroke="rgb(255,255,254)" stroke-width="1" opacity="1" d="M 978.5 336 L 980 338.5 L 978 339.5 L 979 337.5 L 978.5 336 Z "/><path fill="rgb(255,255,254)" stroke="rgb(255,255,254)" stroke-width="1" opacity="1" d="M 1012.5 336 L 1016.5 340 L 1017.5 339 Q 1020.1 338.3 1019 341 L 1014 340.5 L 1015 339.5 L 1012.5 336 Z "/><path fill="rgb(255,255,254)" stroke="rgb(255,255,254)" stroke-width="1" opacity="1" d="M 858.5 337 L 862 338.5 L 860.5 339 L 858.5 338 L 854 341.5 L 858.5 337 Z "/><path fill="rgb(255,255,254)" stroke="rgb(255,255,254)" stroke-width="1" opacity="1" d="M 864.5 337 L 863.5 339 L 864.5 337 Z "/><path fill="rgb(255,255,254)" stroke="rgb(255,255,254)" stroke-width="1" opacity="1" d="M 1020.5 337 L 1023 338.5 L 1021.5 339 L 1020.5 337 Z "/><path fill="rgb(255,255,254)" stroke="rgb(255,255,254)" stroke-width="1" opacity="1" d="M 1052.5 337 L 1055 341 Q 1049.9 342.6 1052.5 337 Z "/><path fill="rgb(255,255,254)" stroke="rgb(255,255,254)" stroke-width="1" opacity="1" d="M 731.5 338 L 733.5 341 L 736.5 339 L 738 342.5 L 737 342.5 L 736.5 340 L 734 341.5 Q 736.3 342.8 733.5 344 L 732 344.5 L 732.5 346 L 731.5 345 L 728 347.5 L 733 341.5 Q 730 340.5 731.5 338 Z "/><path fill="rgb(255,255,254)" stroke="rgb(255,255,254)" stroke-width="1" opacity="1" d="M 1042.5 338 L 1045 339.5 L 1043.5 339 L 1042.5 338 Z "/><path fill="rgb(255,255,254)" stroke="rgb(255,255,254)" stroke-width="1" opacity="1" d="M 968.5 339 L 970.5 339 Q 973.1 338.2 972 341.5 L 971 341.5 L 970.5 340 Q 968.7 342.5 968.5 339 Z "/><path fill="rgb(255,255,254)" stroke="rgb(255,255,254)" stroke-width="1" opacity="1" d="M 996.5 339 L 1000 339.5 L 996.5 340 L 996.5 339 Z "/><path fill="rgb(255,255,254)" stroke="rgb(255,255,254)" stroke-width="1" opacity="1" d="M 1024.5 339 Q 1027.5 342 1033.5 342 L 1036.5 340 L 1035.5 342 L 1031.5 343 L 1025.5 341 L 1024.5 339 Z "/><path fill="rgb(255,255,254)" stroke="rgb(255,255,254)" stroke-width="1" opacity="1" d="M 1067.5 339 L 1070 340 Q 1070.8 343.8 1067.5 345 L 1065 343.5 L 1067.5 342 L 1069 342.5 L 1067.5 339 Z "/><path fill="rgb(255,255,254)" stroke="rgb(255,255,254)" stroke-width="1" opacity="1" d="M 808.5 340 L 807.5 342 L 808.5 340 Z "/><path fill="rgb(255,255,254)" stroke="rgb(255,255,254)" stroke-width="1" opacity="1" d="M 862.5 340 L 861.5 342 L 862.5 340 Z "/><path fill="rgb(255,255,254)" stroke="rgb(255,255,254)" stroke-width="1" opacity="1" d="M 886.5 340 Q 890.8 341.9 889 349 L 887 348.5 L 887 346.5 L 888 342.5 L 886.5 340 Z "/><path fill="rgb(255,255,254)" stroke="rgb(255,255,254)" stroke-width="1" opacity="1" d="M 1021.5 341 L 1019.5 344 L 1021.5 341 Z "/><path fill="rgb(255,255,254)" stroke="rgb(255,255,254)" stroke-width="1" opacity="1" d="M 294.5 342 L 295.5 344 L 294.5 342 Z "/><path fill="rgb(255,255,254)" stroke="rgb(255,255,254)" stroke-width="1" opacity="1" d="M 883.5 342 L 884 344.5 L 883 344.5 L 883.5 342 Z "/><path fill="rgb(255,255,254)" stroke="rgb(255,255,254)" stroke-width="1" opacity="1" d="M 952.5 342 L 950.5 345 L 952.5 342 Z "/><path fill="rgb(255,255,254)" stroke="rgb(255,255,254)" stroke-width="1" opacity="1" d="M 961.5 342 L 962 345.5 L 961 345.5 L 961.5 342 Z "/><path fill="rgb(255,255,254)" stroke="rgb(255,255,254)" stroke-width="1" opacity="1" d="M 1006.5 342 L 1008 344.5 L 1006 343.5 L 1006.5 342 Z "/><path fill="rgb(255,255,254)" stroke="rgb(255,255,254)" stroke-width="1" opacity="1" d="M 1071.5 342 L 1074 342.5 Q 1071.9 345.8 1071.5 342 Z "/><path fill="rgb(255,255,254)" stroke="rgb(255,255,254)" stroke-width="1" opacity="1" d="M 759.5 343 L 761 343.5 L 761 350.5 L 760 350.5 Q 760.5 344.5 759.5 343 Z "/><path fill="rgb(255,255,254)" stroke="rgb(255,255,254)" stroke-width="1" opacity="1" d="M 806.5 343 L 805.5 345 L 806.5 343 Z "/><path fill="rgb(255,255,254)" stroke="rgb(255,255,254)" stroke-width="1" opacity="1" d="M 860.5 343 L 859.5 345 L 860.5 343 Z "/><path fill="rgb(255,255,254)" stroke="rgb(255,255,254)" stroke-width="1" opacity="1" d="M 994.5 343 L 997 343.5 L 994.5 344 L 994.5 343 Z "/><path fill="rgb(255,255,254)" stroke="rgb(255,255,254)" stroke-width="1" opacity="1" d="M 1048.5 343 Q 1051.5 342.2 1050 346 L 1046.5 345 L 1044.5 346 L 1045.5 344 L 1048.5 345 L 1048.5 343 Z "/><path fill="rgb(255,255,254)" stroke="rgb(255,255,254)" stroke-width="1" opacity="1" d="M 456.5 344 L 457.5 346 L 456.5 344 Z "/><path fill="rgb(255,255,254)" stroke="rgb(255,255,254)" stroke-width="1" opacity="1" d="M 479.5 344 Q 483.9 342.5 483 345.5 L 480 347.5 L 481.5 345 Q 478.5 345.5 479.5 344 Z "/><path fill="rgb(255,255,254)" stroke="rgb(255,255,254)" stroke-width="1" opacity="1" d="M 989.5 344 L 990.5 346 L 989.5 344 Z "/><path fill="rgb(255,255,254)" stroke="rgb(255,255,254)" stroke-width="1" opacity="1" d="M 992.5 344 L 994 346.5 L 992 345.5 L 992.5 344 Z "/><path fill="rgb(255,255,254)" stroke="rgb(255,255,254)" stroke-width="1" opacity="1" d="M 1024.5 344 L 1022.5 347 L 1024.5 344 Z "/><path fill="rgb(255,255,254)" stroke="rgb(255,255,254)" stroke-width="1" opacity="1" d="M 451.5 345 L 450.5 347 L 451.5 345 Z "/><path fill="rgb(255,255,254)" stroke="rgb(255,255,254)" stroke-width="1" opacity="1" d="M 476.5 345 L 476.5 347 Q 478.8 346.3 478 348.5 L 475 346.5 L 476.5 345 Z "/><path fill="rgb(255,255,254)" stroke="rgb(255,255,254)" stroke-width="1" opacity="1" d="M 809.5 345 L 810 350.5 L 809 350.5 L 809.5 345 Z "/><path fill="rgb(255,255,254)" stroke="rgb(255,255,254)" stroke-width="1" opacity="1" d="M 976.5 345 L 976 346.5 L 975.5 348 L 975 346.5 L 976.5 345 Z "/><path fill="rgb(255,255,254)" stroke="rgb(255,255,254)" stroke-width="1" opacity="1" d="M 982.5 345 Q 986.9 343.5 986 346.5 L 986.5 348 L 982.5 346 L 982.5 345 Z "/><path fill="rgb(255,255,254)" stroke="rgb(255,255,254)" stroke-width="1" opacity="1" d="M 997.5 345 L 1000 345.5 L 996.5 347 L 997.5 345 Z "/><path fill="rgb(255,255,254)" stroke="rgb(255,255,254)" stroke-width="1" opacity="1" d="M 1056.5 345 L 1057 347 L 1055 346.5 L 1056.5 345 Z "/><path fill="rgb(255,255,254)" stroke="rgb(255,255,254)" stroke-width="1" opacity="1" d="M 1069.5 345 L 1068.5 347 L 1064.5 349 L 1065.5 347 L 1069.5 345 Z "/><path fill="rgb(255,255,254)" stroke="rgb(255,255,254)" stroke-width="1" opacity="1" d="M 753.5 346 L 751.5 349 L 753.5 346 Z "/><path fill="rgb(255,255,254)" stroke="rgb(255,255,254)" stroke-width="1" opacity="1" d="M 804.5 346 Q 802.9 347.8 806 349.5 L 805.5 352 L 803 347.5 L 804.5 346 Z "/><path fill="rgb(255,255,254)" stroke="rgb(255,255,254)" stroke-width="1" opacity="1" d="M 851.5 346 L 850.5 348 L 851.5 346 Z "/><path fill="rgb(255,255,254)" stroke="rgb(255,255,254)" stroke-width="1" opacity="1" d="M 909.5 346 L 911 346.5 L 905.5 351 L 909.5 346 Z "/><path fill="rgb(255,255,254)" stroke="rgb(255,255,254)" stroke-width="1" opacity="1" d="M 1005.5 346 L 1007.5 349 Q 1005.8 345.9 1004 347.5 L 1005.5 346 Z "/><path fill="rgb(255,255,254)" stroke="rgb(255,255,254)" stroke-width="1" opacity="1" d="M 433.5 347 L 434.5 349 L 433.5 347 Z "/><path fill="rgb(255,255,254)" stroke="rgb(255,255,254)" stroke-width="1" opacity="1" d="M 842.5 347 Q 845.8 345.9 845 348.5 L 843.5 348 L 839.5 351 L 842.5 347 Z "/><path fill="rgb(255,255,254)" stroke="rgb(255,255,254)" stroke-width="1" opacity="1" d="M 857.5 347 L 855.5 350 L 857.5 347 Z "/><path fill="rgb(255,255,254)" stroke="rgb(255,255,254)" stroke-width="1" opacity="1" d="M 952.5 347 Q 955.8 345.9 955 348.5 L 952.5 350 L 952.5 349 L 954 348.5 L 952.5 347 Z "/><path fill="rgb(255,255,254)" stroke="rgb(255,255,254)" stroke-width="1" opacity="1" d="M 990.5 347 L 989.5 349 L 988 348.5 L 990.5 347 Z "/><path fill="rgb(255,255,254)" stroke="rgb(255,255,254)" stroke-width="1" opacity="1" d="M 1010.5 347 L 1009.5 349 L 1010.5 347 Z "/><path fill="rgb(255,255,254)" stroke="rgb(255,255,254)" stroke-width="1" opacity="1" d="M 450.5 348 L 454 348.5 L 450.5 349 L 450.5 348 Z "/><path fill="rgb(255,255,254)" stroke="rgb(255,255,254)" stroke-width="1" opacity="1" d="M 459.5 348 L 461.5 351 L 459.5 348 Z "/><path fill="rgb(255,255,254)" stroke="rgb(255,255,254)" stroke-width="1" opacity="1" d="M 484.5 348 L 485 349.5 L 482.5 351 L 482.5 350 Q 485 350.7 484.5 348 Z "/><path fill="rgb(255,255,254)" stroke="rgb(255,255,254)" stroke-width="1" opacity="1" d="M 528.5 348 L 527.5 350 L 528.5 348 Z "/><path fill="rgb(255,255,254)" stroke="rgb(255,255,254)" stroke-width="1" opacity="1" d="M 731.5 348 L 732 350.5 L 731 350.5 L 731.5 348 Z "/><path fill="rgb(255,255,254)" stroke="rgb(255,255,254)" stroke-width="1" opacity="1" d="M 1035.5 348 L 1036 349.5 L 1034 350.5 L 1035.5 348 Z "/><path fill="rgb(255,255,254)" stroke="rgb(255,255,254)" stroke-width="1" opacity="1" d="M 1053.5 348 L 1054 350 L 1056 350.5 L 1054.5 351 L 1053.5 348 Z "/><path fill="rgb(255,255,254)" stroke="rgb(255,255,254)" stroke-width="1" opacity="1" d="M 420.5 349 L 423 349.5 L 420.5 350 L 420.5 349 Z "/><path fill="rgb(255,255,254)" stroke="rgb(255,255,254)" stroke-width="1" opacity="1" d="M 440.5 349 L 440 350.5 L 439.5 352 L 439 350.5 L 440.5 349 Z "/><path fill="rgb(255,255,254)" stroke="rgb(255,255,254)" stroke-width="1" opacity="1" d="M 705.5 349 L 706.5 351 L 705.5 349 Z "/><path fill="rgb(255,255,254)" stroke="rgb(255,255,254)" stroke-width="1" opacity="1" d="M 724.5 349 L 722.5 352 L 724.5 349 Z "/><path fill="rgb(255,255,254)" stroke="rgb(255,255,254)" stroke-width="1" opacity="1" d="M 802.5 349 L 803.5 351 L 801 350.5 L 802.5 349 Z "/><path fill="rgb(255,255,254)" stroke="rgb(255,255,254)" stroke-width="1" opacity="1" d="M 811.5 349 L 818 354.5 L 818.5 353 L 819 356 L 812.5 351 L 811 351.5 L 811.5 349 Z "/><path fill="rgb(255,255,254)" stroke="rgb(255,255,254)" stroke-width="1" opacity="1" d="M 820.5 349 L 819.5 351 L 820.5 349 Z "/><path fill="rgb(255,255,254)" stroke="rgb(255,255,254)" stroke-width="1" opacity="1" d="M 977.5 349 L 979.5 350 L 982 349 L 981.5 351 L 979.5 351 L 977.5 349 Z "/><path fill="rgb(255,255,254)" stroke="rgb(255,255,254)" stroke-width="1" opacity="1" d="M 1030.5 349 L 1032.5 352 L 1030.5 349 Z "/><path fill="rgb(255,255,254)" stroke="rgb(255,255,254)" stroke-width="1" opacity="1" d="M 1096.5 349 Q 1098.8 348.3 1098 350.5 L 1096.5 349 Z "/><path fill="rgb(255,255,254)" stroke="rgb(255,255,254)" stroke-width="1" opacity="1" d="M 497 350 L 499 350.5 L 497 351.5 L 497 350 Z "/><path fill="rgb(255,255,254)" stroke="rgb(255,255,254)" stroke-width="1" opacity="1" d="M 501.5 350 L 503.5 353 L 501.5 350 Z "/><path fill="rgb(255,255,254)" stroke="rgb(255,255,254)" stroke-width="1" opacity="1" d="M 521.5 350 L 518.5 354 L 517 354.5 L 518 356.5 L 517 356.5 L 516 354.5 L 521.5 350 Z "/><path fill="rgb(255,255,254)" stroke="rgb(255,255,254)" stroke-width="1" opacity="1" d="M 701.5 350 L 701 351.5 L 700.5 353 L 700 351.5 L 701.5 350 Z "/><path fill="rgb(255,255,254)" stroke="rgb(255,255,254)" stroke-width="1" opacity="1" d="M 726.5 350 L 729 350.5 Q 729.8 352.8 727.5 352 L 726.5 350 Z "/><path fill="rgb(255,255,254)" stroke="rgb(255,255,254)" stroke-width="1" opacity="1" d="M 773.5 350 L 772.5 352 L 773.5 350 Z "/><path fill="rgb(255,255,254)" stroke="rgb(255,255,254)" stroke-width="1" opacity="1" d="M 798.5 350 L 799.5 353 L 801 352.5 L 798.5 356 L 798 354.5 L 798 352.5 L 798.5 350 Z "/><path fill="rgb(255,255,254)" stroke="rgb(255,255,254)" stroke-width="1" opacity="1" d="M 865.5 350 Q 870.8 348.3 869 353.5 L 868 353.5 Q 869.3 349.8 865.5 351 L 865.5 350 Z "/><path fill="rgb(255,255,254)" stroke="rgb(255,255,254)" stroke-width="1" opacity="1" d="M 993.5 350 L 992.5 352 L 993.5 350 Z "/><path fill="rgb(255,255,254)" stroke="rgb(255,255,254)" stroke-width="1" opacity="1" d="M 1001.5 350 L 1000.5 352 L 1001.5 350 Z "/><path fill="rgb(255,255,254)" stroke="rgb(255,255,254)" stroke-width="1" opacity="1" d="M 1085 350 L 1087 350.5 L 1086.5 353 L 1085 350 Z "/><path fill="rgb(255,255,254)" stroke="rgb(255,255,254)" stroke-width="1" opacity="1" d="M 1088.5 350 L 1092 350.5 L 1088.5 351 L 1088.5 350 Z "/><path fill="rgb(255,255,254)" stroke="rgb(255,255,254)" stroke-width="1" opacity="1" d="M 302.5 351 L 307 353.5 L 305.5 353 Q 301.8 352.7 302.5 351 Z "/><path fill="rgb(255,255,254)" stroke="rgb(255,255,254)" stroke-width="1" opacity="1" d="M 344.5 351 L 345.5 353 Q 342.7 353.7 344.5 351 Z "/><path fill="rgb(255,255,254)" stroke="rgb(255,255,254)" stroke-width="1" opacity="1" d="M 554.5 351 L 555.5 353 L 557 352.5 L 554 354 L 554.5 351 Z "/><path fill="rgb(255,255,254)" stroke="rgb(255,255,254)" stroke-width="1" opacity="1" d="M 708.5 351 L 711 352.5 L 709.5 353 L 708.5 351 Z "/><path fill="rgb(255,255,254)" stroke="rgb(255,255,254)" stroke-width="1" opacity="1" d="M 747.5 351 L 743.5 356 L 747.5 351 Z "/><path fill="rgb(255,255,254)" stroke="rgb(255,255,254)" stroke-width="1" opacity="1" d="M 825.5 351 L 821.5 356 L 825.5 351 Z "/><path fill="rgb(255,255,254)" stroke="rgb(255,255,254)" stroke-width="1" opacity="1" d="M 854.5 351 L 850 356.5 L 852 359.5 L 849 357.5 L 854.5 351 Z "/><path fill="rgb(255,255,254)" stroke="rgb(255,255,254)" stroke-width="1" opacity="1" d="M 862.5 351 L 861.5 353 L 862.5 351 Z "/><path fill="rgb(255,255,254)" stroke="rgb(255,255,254)" stroke-width="1" opacity="1" d="M 952.5 351 L 955 351.5 L 952.5 352 L 952.5 351 Z "/><path fill="rgb(255,255,254)" stroke="rgb(255,255,254)" stroke-width="1" opacity="1" d="M 1050.5 351 L 1053 352.5 L 1051.5 353 L 1050.5 351 Z "/><path fill="rgb(255,255,254)" stroke="rgb(255,255,254)" stroke-width="1" opacity="1" d="M 1103.5 351 L 1105 351.5 L 1101.5 354 L 1103.5 351 Z "/><path fill="rgb(255,255,254)" stroke="rgb(255,255,254)" stroke-width="1" opacity="1" d="M 314.5 352 L 315.5 354 L 317 353.5 L 314 355.5 L 313.5 354 L 312 354.5 L 314.5 352 Z "/><path fill="rgb(255,255,254)" stroke="rgb(255,255,254)" stroke-width="1" opacity="1" d="M 473.5 352 Q 475.8 351.3 475 353.5 L 473.5 352 Z "/><path fill="rgb(255,255,254)" stroke="rgb(255,255,254)" stroke-width="1" opacity="1" d="M 481.5 352 L 486 352.5 Q 480.9 352 479.5 355 L 479 353 L 481.5 352 Z "/><path fill="rgb(255,255,254)" stroke="rgb(255,255,254)" stroke-width="1" opacity="1" d="M 491.5 352 L 493 352.5 L 491 353.5 L 492 355.5 L 491 355.5 L 490 353.5 L 491.5 352 Z "/><path fill="rgb(255,255,254)" stroke="rgb(255,255,254)" stroke-width="1" opacity="1" d="M 528.5 352 L 532 352.5 L 528.5 353 L 528.5 352 Z "/><path fill="rgb(255,255,254)" stroke="rgb(255,255,254)" stroke-width="1" opacity="1" d="M 543.5 352 L 544.5 354 L 542 353.5 L 543.5 352 Z "/><path fill="rgb(255,255,254)" stroke="rgb(255,255,254)" stroke-width="1" opacity="1" d="M 659.5 352 L 662 353.5 L 662 355 L 659 355 Q 660.1 357.7 657.5 357 L 659.5 354 L 661 353.5 L 659.5 352 Z "/><path fill="rgb(255,255,254)" stroke="rgb(255,255,254)" stroke-width="1" opacity="1" d="M 712.5 352 L 715 352.5 L 712.5 353 L 712.5 352 Z "/><path fill="rgb(255,255,254)" stroke="rgb(255,255,254)" stroke-width="1" opacity="1" d="M 750.5 352 L 753 355.5 L 751 356 L 750.5 352 Z "/><path fill="rgb(255,255,254)" stroke="rgb(255,255,254)" stroke-width="1" opacity="1" d="M 770.5 352 L 769.5 354 L 767.5 355 L 767 353 L 770.5 352 Z "/><path fill="rgb(255,255,254)" stroke="rgb(255,255,254)" stroke-width="1" opacity="1" d="M 927.5 352 L 928.5 354 L 927.5 352 Z "/><path fill="rgb(255,255,254)" stroke="rgb(255,255,254)" stroke-width="1" opacity="1" d="M 960.5 352 L 964 352.5 L 960.5 353 L 960.5 352 Z "/><path fill="rgb(255,255,254)" stroke="rgb(255,255,254)" stroke-width="1" opacity="1" d="M 975.5 352 L 974.5 354 L 975.5 352 Z "/><path fill="rgb(255,255,254)" stroke="rgb(255,255,254)" stroke-width="1" opacity="1" d="M 986.5 352 L 990 353.5 L 987.5 354 L 986.5 352 Z "/><path fill="rgb(255,255,254)" stroke="rgb(255,255,254)" stroke-width="1" opacity="1" d="M 321.5 353 L 330 353.5 L 321.5 354 L 321.5 353 Z "/><path fill="rgb(255,255,254)" stroke="rgb(255,255,254)" stroke-width="1" opacity="1" d="M 348.5 353 L 358 353.5 L 348.5 354 L 348.5 353 Z "/><path fill="rgb(255,255,254)" stroke="rgb(255,255,254)" stroke-width="1" opacity="1" d="M 364.5 353 L 367 353.5 Q 367.8 355.8 365.5 355 L 364.5 353 Z "/><path fill="rgb(255,255,254)" stroke="rgb(255,255,254)" stroke-width="1" opacity="1" d="M 534.5 353 L 538 353.5 L 534.5 354 L 534.5 353 Z "/><path fill="rgb(255,255,254)" stroke="rgb(255,255,254)" stroke-width="1" opacity="1" d="M 550.5 353 L 550 354.5 L 549.5 356 L 549 354.5 L 550.5 353 Z "/><path fill="rgb(255,255,254)" stroke="rgb(255,255,254)" stroke-width="1" opacity="1" d="M 610 353 L 614 354.5 L 610 355 L 610 353 Z "/><path fill="rgb(255,255,254)" stroke="rgb(255,255,254)" stroke-width="1" opacity="1" d="M 666.5 353 L 670 355.5 L 668.5 356 L 666.5 353 Z "/><path fill="rgb(255,255,254)" stroke="rgb(255,255,254)" stroke-width="1" opacity="1" d="M 780.5 353 L 790 353.5 L 780.5 354 L 780.5 353 Z "/><path fill="rgb(255,255,254)" stroke="rgb(255,255,254)" stroke-width="1" opacity="1" d="M 837.5 353 L 835.5 356 L 837.5 353 Z "/><path fill="rgb(255,255,254)" stroke="rgb(255,255,254)" stroke-width="1" opacity="1" d="M 930.5 353 Q 933.8 351.9 933 354.5 L 934.5 357 L 931.5 355 L 931 357.5 L 933 357.5 L 930 359 L 929 355.5 L 931 354.5 L 930.5 353 Z "/><path fill="rgb(255,255,254)" stroke="rgb(255,255,254)" stroke-width="1" opacity="1" d="M 1005.5 353 L 1007 353.5 L 1003.5 356 L 1002.5 354 Q 1004 356.5 1005.5 353 Z "/><path fill="rgb(255,255,254)" stroke="rgb(255,255,254)" stroke-width="1" opacity="1" d="M 1008.5 353 L 1010.5 354 L 1012 353.5 L 1009.5 355 L 1008.5 353 Z "/><path fill="rgb(255,255,254)" stroke="rgb(255,255,254)" stroke-width="1" opacity="1" d="M 1048.5 353 L 1049.5 355 L 1048.5 353 Z "/><path fill="rgb(255,255,254)" stroke="rgb(255,255,254)" stroke-width="1" opacity="1" d="M 346.5 354 L 349 355.5 L 347.5 356 L 346 355.5 Q 346.8 357.8 344.5 357 L 346.5 354 Z "/><path fill="rgb(255,255,254)" stroke="rgb(255,255,254)" stroke-width="1" opacity="1" d="M 360.5 354 L 361.5 356 L 360.5 354 Z "/><path fill="rgb(255,255,254)" stroke="rgb(255,255,254)" stroke-width="1" opacity="1" d="M 396.5 354 L 399 354.5 L 396.5 355 L 396.5 354 Z "/><path fill="rgb(255,255,254)" stroke="rgb(255,255,254)" stroke-width="1" opacity="1" d="M 504.5 354 L 505.5 356 L 504.5 354 Z "/><path fill="rgb(255,255,254)" stroke="rgb(255,255,254)" stroke-width="1" opacity="1" d="M 510.5 354 Q 513.5 355.5 510.5 357 L 510.5 354 Z "/><path fill="rgb(255,255,254)" stroke="rgb(255,255,254)" stroke-width="1" opacity="1" d="M 557.5 354 L 558 355.5 L 557.5 358 L 555 357.5 L 557.5 354 Z "/><path fill="rgb(255,255,254)" stroke="rgb(255,255,254)" stroke-width="1" opacity="1" d="M 602.5 354 L 603.5 357 L 605 356.5 L 602 358 L 602.5 354 Z "/><path fill="rgb(255,255,254)" stroke="rgb(255,255,254)" stroke-width="1" opacity="1" d="M 629.5 354 L 628.5 356 L 629.5 354 Z "/><path fill="rgb(255,255,254)" stroke="rgb(255,255,254)" stroke-width="1" opacity="1" d="M 650.5 354 L 652 356.5 L 650 355.5 L 650.5 354 Z "/><path fill="rgb(255,255,254)" stroke="rgb(255,255,254)" stroke-width="1" opacity="1" d="M 676.5 354 L 675.5 356 L 676.5 354 Z "/><path fill="rgb(255,255,254)" stroke="rgb(255,255,254)" stroke-width="1" opacity="1" d="M 762.5 354 L 763 356 L 761 355.5 L 762.5 354 Z "/><path fill="rgb(255,255,254)" stroke="rgb(255,255,254)" stroke-width="1" opacity="1" d="M 950 354 L 952 354.5 L 951 356.5 L 953 356.5 L 950 358 L 950 354 Z "/><path fill="rgb(255,255,254)" stroke="rgb(255,255,254)" stroke-width="1" opacity="1" d="M 338.5 355 L 341 355.5 L 338.5 356 L 338.5 355 Z "/><path fill="rgb(255,255,254)" stroke="rgb(255,255,254)" stroke-width="1" opacity="1" d="M 369.5 355 L 370 356.5 L 368 357.5 L 369.5 355 Z "/><path fill="rgb(255,255,254)" stroke="rgb(255,255,254)" stroke-width="1" opacity="1" d="M 379.5 355 L 385 355.5 L 379.5 356 L 379.5 355 Z "/><path fill="rgb(255,255,254)" stroke="rgb(255,255,254)" stroke-width="1" opacity="1" d="M 498.5 355 L 502 356.5 L 499.5 357 L 497 356.5 L 498.5 355 Z "/><path fill="rgb(255,255,254)" stroke="rgb(255,255,254)" stroke-width="1" opacity="1" d="M 561.5 355 L 563.5 358 L 561.5 355 Z "/><path fill="rgb(255,255,254)" stroke="rgb(255,255,254)" stroke-width="1" opacity="1" d="M 579.5 355 L 582 355.5 L 576.5 359 L 577 357.5 Q 576.3 355.3 578.5 356 L 579.5 355 Z "/><path fill="rgb(255,255,254)" stroke="rgb(255,255,254)" stroke-width="1" opacity="1" d="M 593.5 355 L 594.5 357 L 593.5 355 Z "/><path fill="rgb(255,255,254)" stroke="rgb(255,255,254)" stroke-width="1" opacity="1" d="M 631 355 Q 634 354 633 357 Q 630 358 631 355 Z "/><path fill="rgb(255,255,254)" stroke="rgb(255,255,254)" stroke-width="1" opacity="1" d="M 671.5 355 L 672 358.5 L 671 358.5 L 671.5 355 Z "/><path fill="rgb(255,255,254)" stroke="rgb(255,255,254)" stroke-width="1" opacity="1" d="M 684.5 355 L 690 355.5 L 684.5 356 L 684.5 355 Z "/><path fill="rgb(255,255,254)" stroke="rgb(255,255,254)" stroke-width="1" opacity="1" d="M 806.5 355 L 807.5 357 L 806.5 355 Z "/><path fill="rgb(255,255,254)" stroke="rgb(255,255,254)" stroke-width="1" opacity="1" d="M 844.5 355 L 847 356.5 L 845.5 357 L 844.5 355 Z "/><path fill="rgb(255,255,254)" stroke="rgb(255,255,254)" stroke-width="1" opacity="1" d="M 883.5 355 L 884 357.5 L 883 357.5 L 883.5 355 Z "/><path fill="rgb(255,255,254)" stroke="rgb(255,255,254)" stroke-width="1" opacity="1" d="M 892.5 355 L 890.5 358 L 892.5 355 Z "/><path fill="rgb(255,255,254)" stroke="rgb(255,255,254)" stroke-width="1" opacity="1" d="M 1087.5 355 L 1086.5 357 L 1085 356.5 L 1087.5 355 Z "/><path fill="rgb(255,255,254)" stroke="rgb(255,255,254)" stroke-width="1" opacity="1" d="M 376.5 356 L 377.5 358 Q 374.7 358.7 376.5 356 Z "/><path fill="rgb(255,255,254)" stroke="rgb(255,255,254)" stroke-width="1" opacity="1" d="M 543.5 356 L 548 356.5 L 543.5 357 L 543.5 356 Z "/><path fill="rgb(255,255,254)" stroke="rgb(255,255,254)" stroke-width="1" opacity="1" d="M 573.5 356 L 576 356.5 L 573.5 357 L 573.5 356 Z "/><path fill="rgb(255,255,254)" stroke="rgb(255,255,254)" stroke-width="1" opacity="1" d="M 623.5 356 L 628 357.5 L 625.5 358 L 623.5 357 L 620.5 359 L 620.5 358 L 623.5 356 Z "/><path fill="rgb(255,255,254)" stroke="rgb(255,255,254)" stroke-width="1" opacity="1" d="M 801 356 L 803 356.5 L 801 357.5 L 801 356 Z "/><path fill="rgb(255,255,254)" stroke="rgb(255,255,254)" stroke-width="1" opacity="1" d="M 833.5 356 L 834 358 L 832 357.5 L 833.5 356 Z "/><path fill="rgb(255,255,254)" stroke="rgb(255,255,254)" stroke-width="1" opacity="1" d="M 896.5 356 L 899 356.5 L 896 357 Q 897.3 360 893.5 359 L 893.5 358 L 896.5 356 Z "/><path fill="rgb(255,255,254)" stroke="rgb(255,255,254)" stroke-width="1" opacity="1" d="M 941.5 356 L 943 356.5 L 940.5 358 L 941.5 356 Z "/><path fill="rgb(255,255,254)" stroke="rgb(255,255,254)" stroke-width="1" opacity="1" d="M 674.5 357 L 673.5 359 L 674.5 357 Z "/><path fill="rgb(255,255,254)" stroke="rgb(255,255,254)" stroke-width="1" opacity="1" d="M 869.5 357 L 873 357.5 L 870 359.5 L 870.5 358 L 869.5 357 Z "/><path fill="rgb(255,255,254)" stroke="rgb(255,255,254)" stroke-width="1" opacity="1" d="M 595.5 358 L 598 359.5 L 596.5 360 L 595.5 358 Z "/><path fill="rgb(255,255,254)" stroke="rgb(255,255,254)" stroke-width="1" opacity="1" d="M 657.5 358 L 659.5 361 L 657.5 358 Z "/><path fill="rgb(255,255,254)" stroke="rgb(255,255,254)" stroke-width="1" opacity="1" d="M 843.5 358 L 844 360 L 841.5 361 L 843.5 358 Z "/><path fill="rgb(255,255,254)" stroke="rgb(255,255,254)" stroke-width="1" opacity="1" d="M 874.5 358 L 873.5 360 L 874.5 358 Z "/><path fill="rgb(255,255,254)" stroke="rgb(255,255,254)" stroke-width="1" opacity="1" d="M 879.5 358 L 881.5 361 L 879.5 358 Z "/><path fill="rgb(255,255,254)" stroke="rgb(255,255,254)" stroke-width="1" opacity="1" d="M 942.5 358 L 941.5 360 L 939 359.5 L 942.5 358 Z "/><path fill="rgb(255,255,254)" stroke="rgb(255,255,254)" stroke-width="1" opacity="1" d="M 564.5 359 L 568 359.5 L 564.5 360 L 564.5 359 Z "/><path fill="rgb(255,255,254)" stroke="rgb(255,255,254)" stroke-width="1" opacity="1" d="M 610.5 359 Q 613.5 360.5 610.5 362 L 610.5 359 Z "/><path fill="rgb(255,255,254)" stroke="rgb(255,255,254)" stroke-width="1" opacity="1" d="M 667.5 359 L 670 360.5 L 669.5 362 L 669 360 L 667.5 359 Z "/><path fill="rgb(255,255,254)" stroke="rgb(255,255,254)" stroke-width="1" opacity="1" d="M 600 360 L 602 360.5 L 601.5 362 L 603.5 361 L 604.5 363 Q 598.2 364.9 600 360 Z "/><path fill="rgb(255,255,254)" stroke="rgb(255,255,254)" stroke-width="1" opacity="1" d="M 853.5 360 L 852.5 362 L 853.5 360 Z "/><path fill="rgb(255,255,254)" stroke="rgb(255,255,254)" stroke-width="1" opacity="1" d="M 664.5 361 L 665.5 363 Q 662.7 363.7 664.5 361 Z "/><path fill="rgb(255,255,254)" stroke="rgb(255,255,254)" stroke-width="1" opacity="1" d="M 860.5 361 L 860 362.5 L 858.5 365 L 859 363.5 L 860.5 361 Z "/><path fill="rgb(255,255,254)" stroke="rgb(255,255,254)" stroke-width="1" opacity="1" d="M 884.5 361 L 883.5 363 L 884.5 361 Z "/><path fill="rgb(255,255,254)" stroke="rgb(255,255,254)" stroke-width="1" opacity="1" d="M 608.5 362 L 609.5 364 L 608.5 362 Z "/><path fill="rgb(255,255,254)" stroke="rgb(255,255,254)" stroke-width="1" opacity="1" d="M 852.5 363 L 855 363.5 L 852.5 364 L 852.5 363 Z "/><path fill="rgb(255,255,255)" stroke="rgb(255,255,255)" stroke-width="1" opacity="1" d="M 0 0 L 1366 0 L 1366 768 L 0 768 L 0 0 Z M 664 322 L 657 326 L 654 325 L 652 326 L 653 329 L 645 326 Q 636 326 631 330 L 627 328 Q 620 327 618 330 Q 611 332 613 327 L 606 327 L 605 326 Q 598 325 597 329 L 593 327 Q 584 326 582 331 L 581 329 L 580 329 L 570 326 L 555 326 L 546 323 L 542 324 L 539 329 L 536 330 Q 532 332 536 334 L 535 336 Q 536 339 534 338 L 532 335 Q 534 336 533 332 L 527 331 L 524 328 L 508 328 L 497 326 L 484 326 L 483 329 L 484 330 Q 479 331 480 329 L 482 326 Q 476 325 476 329 L 474 329 L 477 324 L 471 329 L 469 329 L 467 326 L 458 327 L 460 330 L 458 331 Q 449 328 436 330 L 435 329 Q 431 333 423 332 L 423 336 L 421 333 L 412 329 L 412 327 L 404 331 L 403 329 L 399 330 L 386 329 L 385 328 L 376 328 L 376 332 L 371 327 L 368 331 L 366 330 L 365 333 L 359 331 L 338 332 L 337 333 L 322 333 L 310 329 Q 311 331 308 333 L 309 335 L 303 332 L 292 335 L 298 351 Q 299 353 301 351 L 310 355 L 314 354 L 314 356 L 318 353 L 333 354 L 346 357 L 345 355 L 348 356 Q 350 357 349 354 L 360 354 L 363 357 Q 365 358 364 355 L 366 355 Q 368 356 367 354 L 369 355 L 368 358 L 371 359 L 378 358 L 377 357 L 386 355 L 399 355 L 404 353 Q 406 354 405 351 L 408 350 L 418 352 Q 418 349 423 350 Q 426 352 425 354 L 428 354 L 431 352 L 432 348 L 435 349 L 439 346 L 440 349 L 439 352 L 442 353 Q 447 354 450 351 Q 455 349 454 353 Q 458 354 456 349 L 450 348 L 456 344 L 459 349 L 466 353 L 470 352 L 475 354 L 479 353 L 480 355 L 482 353 Q 487 355 489 352 Q 491 351 490 354 L 492 354 L 491 356 L 493 355 L 498 357 L 502 357 L 500 356 Q 497 355 498 352 L 501 350 L 504 355 L 508 357 L 511 357 L 509 356 L 510 354 L 514 357 Q 519 359 518 356 L 517 353 L 519 354 L 522 352 Q 521 355 526 353 L 527 351 L 530 349 L 529 352 L 529 353 Q 532 352 531 355 Q 534 353 540 354 L 543 349 Q 545 348 544 351 L 547 352 L 545 353 Q 543 351 542 354 L 544 357 L 549 356 Q 551 357 550 355 L 553 353 L 554 353 Q 553 355 556 354 L 558 353 L 557 356 L 556 358 L 562 356 L 564 360 L 576 357 L 577 357 L 576 359 Q 575 361 578 360 L 580 356 L 585 357 L 594 356 L 595 359 L 598 360 L 597 356 L 599 353 L 602 353 L 602 358 L 609 354 L 613 358 L 608 360 L 610 364 L 610 363 L 615 359 Q 622 361 624 357 L 628 358 L 630 354 Q 631 351 635 352 L 637 355 L 640 353 Q 641 356 647 354 L 650 351 L 651 352 L 654 350 L 654 352 L 650 353 L 652 357 L 657 355 L 658 356 L 657 359 L 665 363 L 666 363 L 662 357 Q 660 355 663 354 Q 668 353 670 356 L 671 356 Q 669 360 674 359 L 675 357 L 678 355 L 680 359 Q 679 363 683 361 L 682 355 L 685 356 Q 692 357 696 353 L 696 356 L 699 354 L 700 355 L 704 349 L 710 353 L 714 353 L 715 356 L 725 350 L 729 352 L 728 349 L 733 345 L 731 351 L 734 351 Q 736 350 735 354 L 737 353 L 744 356 Q 749 348 759 344 L 760 345 L 760 350 L 750 353 L 751 356 L 758 353 Q 760 352 759 355 L 762 356 Q 764 357 763 354 Q 765 350 771 351 L 770 353 Q 766 352 767 355 L 770 355 L 775 350 L 780 351 L 781 354 Q 792 355 798 351 L 799 356 L 807 343 L 809 342 L 809 353 L 808 354 Q 809 356 806 355 Q 807 350 805 348 L 801 358 L 804 356 L 813 357 L 812 354 L 813 351 L 819 356 Q 818 351 821 350 L 821 356 L 826 352 L 827 358 L 829 357 L 833 358 L 836 356 L 843 348 L 844 349 L 844 356 L 847 357 Q 850 345 859 338 L 862 339 L 863 339 L 849 358 L 853 361 L 850 363 L 859 365 L 860 363 L 866 359 L 866 356 L 859 359 L 857 360 L 859 355 L 864 351 L 868 351 L 867 356 L 868 359 L 871 358 L 871 360 L 879 358 L 884 363 L 885 362 L 883 355 L 884 340 L 888 343 L 887 346 Q 886 350 889 349 L 890 343 L 893 348 L 890 358 L 893 356 L 893 359 L 896 359 Q 895 356 899 357 L 899 355 L 904 356 Q 904 350 910 347 Q 912 346 911 349 L 927 352 Q 930 354 930 359 L 939 355 L 938 352 L 934 353 L 931 353 L 933 349 Q 937 344 944 342 L 944 345 L 947 346 L 951 345 L 957 340 L 960 341 L 961 342 L 961 349 Q 957 350 955 347 L 952 348 L 954 349 L 953 349 L 951 349 L 950 351 L 953 352 L 968 353 L 973 355 L 976 353 Q 977 350 973 351 L 975 348 Q 977 349 976 347 L 982 343 Q 985 342 986 345 L 982 346 L 989 349 L 991 348 L 989 344 L 996 340 L 1000 340 L 999 339 L 999 337 L 997 337 Q 998 334 996 335 L 996 337 L 991 337 Q 992 333 990 334 Q 987 335 989 337 L 989 338 L 982 333 L 981 335 L 978 337 L 979 339 L 975 341 Q 971 342 972 339 L 970 340 L 967 337 L 969 336 L 961 332 L 950 334 L 948 334 L 944 335 L 937 335 L 930 331 L 926 333 Q 919 335 920 331 L 910 329 L 904 326 Q 899 325 898 327 L 891 327 L 891 330 L 885 330 L 884 331 Q 878 329 880 335 L 871 333 L 868 330 Q 859 329 856 332 L 845 330 L 840 331 Q 839 328 842 329 L 843 330 L 841 327 Q 842 323 838 325 L 839 328 L 838 333 L 836 334 L 836 332 L 831 332 L 831 330 L 824 333 L 821 336 L 819 335 L 817 336 Q 813 337 815 333 L 811 336 L 808 335 L 809 333 L 809 331 L 800 336 L 799 334 L 795 336 L 791 333 L 774 332 L 764 329 Q 761 328 762 331 L 760 330 Q 755 331 756 329 L 757 327 L 747 327 L 746 325 L 744 326 L 745 323 L 742 324 Q 737 325 738 332 Q 737 334 736 332 L 732 334 L 731 332 L 733 332 L 729 330 Q 722 329 720 332 L 709 332 L 708 335 L 700 332 L 696 333 L 692 331 L 690 336 L 684 332 L 680 332 L 680 334 L 674 326 L 673 322 Q 668 321 670 327 L 668 328 Q 671 320 664 322 Z M 294 328 L 295 330 L 296 330 L 294 328 Z M 290 330 L 288 333 Q 287 336 291 334 L 290 330 Z M 1034 331 L 1028 335 L 1034 336 L 1034 331 Z M 973 333 L 970 337 Q 974 338 973 336 Q 975 334 973 333 Z M 976 334 L 977 336 Q 978 333 976 334 Z M 1042 334 L 1040 337 L 1043 335 L 1042 334 Z M 1003 335 L 1001 337 Q 1000 339 1003 338 L 1003 335 Z M 1010 335 L 1006 339 L 1009 339 L 1010 339 L 1008 342 Q 1005 341 1006 344 L 1009 345 L 1010 348 Q 1008 351 1006 346 L 1004 349 L 1002 350 Q 999 351 1000 355 L 1004 356 L 1007 354 Q 1008 352 1010 355 L 1012 354 L 1011 342 L 1011 340 L 1021 342 Q 1018 343 1019 348 L 1025 345 L 1023 344 L 1024 341 L 1032 343 L 1036 342 L 1037 340 L 1035 341 Q 1031 342 1032 339 L 1028 340 L 1021 337 L 1021 339 L 1018 339 L 1017 340 L 1013 336 L 1010 337 L 1010 335 Z M 1053 337 Q 1050 343 1055 341 L 1053 337 Z M 1067 337 Q 1066 340 1069 342 L 1065 344 L 1068 345 Q 1071 343 1071 339 L 1067 337 Z M 1043 338 L 1043 342 Q 1046 343 1045 340 L 1043 338 Z M 1076 340 L 1076 341 L 1078 341 L 1076 340 Z M 1072 342 L 1073 345 L 1072 346 L 1075 346 L 1076 343 L 1072 342 Z M 995 343 L 992 344 L 994 347 L 1000 346 L 1000 345 Q 996 346 997 343 L 995 343 Z M 1049 343 L 1046 344 L 1045 346 L 1047 345 L 1050 346 Q 1051 342 1049 343 Z M 1057 345 L 1053 350 L 1056 351 L 1057 347 L 1057 345 Z M 1126 345 L 1124 348 L 1127 347 Q 1128 344 1126 345 Z M 938 347 L 938 350 L 942 349 L 942 347 L 938 347 Z M 1066 347 L 1065 349 L 1067 348 L 1066 347 Z M 1033 348 L 1031 349 L 1033 352 L 1036 350 Q 1037 347 1033 348 Z M 1047 348 L 1048 354 Q 1049 356 1051 354 L 1052 356 L 1053 352 L 1048 350 Q 1049 347 1047 348 Z M 978 349 Q 977 352 982 351 Q 983 347 978 349 Z M 1097 349 L 1088 351 L 1085 350 L 1087 353 Q 1091 354 1093 352 L 1097 353 L 1098 351 Q 1099 348 1097 349 Z M 994 350 L 992 353 L 994 354 L 994 350 Z M 1104 351 L 1102 354 L 1105 352 L 1104 351 Z M 987 352 L 988 354 L 990 354 L 987 352 Z M 1014 353 Q 1013 356 1017 355 Q 1018 352 1014 353 Z M 950 354 L 950 358 L 952 358 Q 954 357 952 356 Q 953 353 950 354 Z M 1084 354 L 1086 357 L 1088 356 L 1084 354 Z M 631 355 L 632 359 L 633 359 Q 634 354 631 355 Z M 942 356 L 939 360 L 943 359 Q 944 355 942 356 Z M 840 357 Q 837 358 838 362 Q 841 363 843 360 Q 845 361 844 358 L 840 357 Z M 668 359 L 670 362 L 670 361 L 668 359 Z M 600 360 L 600 363 L 605 363 L 600 360 Z "/><path fill="rgb(255,255,255)" stroke="rgb(255,255,255)" stroke-width="1" opacity="1" d="M 735.5 337 L 736 338.5 Q 734 343 732 339.5 Q 731.2 336.9 734.5 338 L 735.5 337 Z "/><path fill="rgb(255,255,255)" stroke="rgb(255,255,255)" stroke-width="1" opacity="1" d="M 736.5 340 L 737 344 Q 734 345.3 735 341.5 L 736.5 340 Z "/><path fill="rgb(255,255,255)" stroke="rgb(255,255,255)" stroke-width="1" opacity="1" d="M 477.5 345 L 482 345.5 L 480.5 348 Q 485.3 346.7 484 350 L 477 351 L 478 347 L 474.5 348 L 474.5 347 L 477.5 345 Z "/></svg>